<?xml version="1.0" encoding="UTF-8"?>
<svg xmlns="http://www.w3.org/2000/svg" width="371.017" height="109.85" viewBox="774.5 255.133 371.017 109.85">
  <g data-name="Groupe 226">
    <g data-name="Groupe 185">
      <path d="m1136.072 270.65-.321 1.026h-2.011v6.494h-1.193v-6.494h-2.13v-1.026h5.655Z" fill-rule="evenodd" data-name="Tracé 364"></path>
    </g>
    <g data-name="Groupe 188" transform="translate(774.5 255.158)" clip-path="url(&quot;#a&quot;)">
      <g data-name="Groupe 186">
        <path d="M370.999 22.95h-1.134V17.374c-.063.16-.209.415-.435.762l-1.67 2.674h-.611l-1.802-2.708a14.224 14.224 0 0 1-.446-.728c.022.22.034.477.034.773v4.803h-1.157v-7.501h1.123l2.118 3.184c.195.299.343.55.448.756h.011a7.86 7.86 0 0 1 .424-.771l1.976-3.17h1.12v7.502Z" fill-rule="evenodd" data-name="Tracé 365"></path>
      </g>
      <g data-name="Groupe 187">
        <path d="M163.784 94.028c0 4.796-1.306 8.552-3.92 11.265-2.904 3.01-7.135 4.518-12.695 4.518-5.394 0-9.428-1.326-12.104-3.977-2.673-2.654-4.014-6.632-4.014-11.936V67.225h6.473v26.357c0 3.31.851 5.885 2.552 7.734 1.699 1.844 4.108 2.767 7.219 2.767 6.635 0 9.957-3.373 9.957-10.123V67.225h6.532v26.803Z" fill-rule="evenodd" data-name="Tracé 366"></path>
      </g>
    </g>
    <g data-name="Groupe 189">
      <path d="m1004.161 322.27-10.363 16.033-9.99-16.033h-7.474l13.028 20.554-14.475 21.506h7.345l11.006-16.578 10.332 16.578h7.501l-13.35-21.122 13.728-20.938h-7.288Z" fill-rule="evenodd" data-name="Tracé 368"></path>
    </g>
    <g data-name="Groupe 190">
      <path d="M1042.386 322.27v42.06h22.024v-5.743h-15.476v-12.891h13.354v-5.746h-13.354v-11.936h13.354l2.059-5.744h-21.96Z" fill-rule="evenodd" data-name="Tracé 369"></path>
    </g>
    <g data-name="Groupe 191">
      <path d="M842.79 322.175v42.06h21.527v-5.743H849.28v-36.317h-6.49Z" fill-rule="evenodd" data-name="Tracé 370"></path>
    </g>
    <g data-name="Groupe 192">
      <path d="M774.5 255.537v5.746h11.918v36.315h6.674v-36.315h11.242l1.8-5.746H774.5Z" fill-rule="evenodd" data-name="Tracé 371"></path>
    </g>
    <g data-name="Groupe 193">
      <path d="M843.125 255.537v42.06h22.024v-5.743h-15.474v-12.891h13.352v-5.743h-13.352v-11.937h13.352l2.059-5.746h-21.96Z" fill-rule="evenodd" data-name="Tracé 372"></path>
    </g>
    <g data-name="Groupe 196" transform="translate(774.5 255.158)" clip-path="url(&quot;#b&quot;)">
      <g data-name="Groupe 194">
        <path d="M165.089 42.327h-6.035l-19.376-25.76c-1.9-2.555-3.261-4.575-4.086-6.067V42.327h-6.47V.38h6.47l18.67 24.829c2.114 2.844 3.546 4.941 4.292 6.297V.38h6.535v41.948Z" fill-rule="evenodd" data-name="Tracé 373"></path>
      </g>
      <g data-name="Groupe 195">
        <path d="M232.48 39.27c-4.068 2.466-8.32 3.694-12.757 3.694-6.223 0-11.203-2.015-14.934-6.044-3.57-3.906-5.352-8.937-5.352-15.085 0-6.196 2-11.386 6.006-15.568C209.446 2.087 214.661 0 221.09 0c4.314 0 7.842.782 10.58 2.35l-.125 6.368c-3.236-2.038-6.699-3.057-10.392-3.057-4.563 0-8.193 1.548-10.89 4.645-2.49 2.891-3.733 6.56-3.733 11.015 0 4.583 1.278 8.35 3.828 11.297 2.55 2.954 6.006 4.424 10.36 4.424 3.32 0 6.616-.912 9.895-2.734l1.866 4.962Z" fill-rule="evenodd" data-name="Tracé 374"></path>
      </g>
    </g>
    <g data-name="Groupe 197">
      <path d="M1040.664 255.537v42.06h22.023v-5.743h-15.473v-12.891h13.352v-5.743h-13.352v-11.937h13.352l2.059-5.746h-21.96Z" fill-rule="evenodd" data-name="Tracé 376"></path>
    </g>
    <g data-name="Groupe 198">
      <path d="M1101.073 255.537v42.06h21.524v-5.743h-15.035v-36.317h-6.49Z" fill-rule="evenodd" data-name="Tracé 377"></path>
    </g>
  </g>
  <defs>
    <clipPath id="a">
      <path d="M0 60.812h371V-49H0V60.812Z" data-name="Tracé 367" transform="translate(0 49)"></path>
    </clipPath>
    <clipPath id="b">
      <path d="M0 60.812h371V-49H0V60.812Z" data-name="Tracé 375" transform="translate(0 49)"></path>
    </clipPath>
  </defs>
</svg>
