<svg xmlns="http://www.w3.org/2000/svg" viewBox="0 0 238.921 88.002">
  <defs>
    <style>
      .cls-1 {
        fill: #fff;
      }
    </style>
  </defs>
  <g id="Group_1" data-name="Group 1" transform="matrix(0.998, 0.07, -0.07, 0.998, 3.547, 0.004)">
    <path id="Path_284" data-name="Path 284" class="cls-1" d="M31.654,20.4a29.249,29.249,0,0,0-1.9-7.272C26.661,4.95,19.214.429,13.678,0c-3.13.012-5.783.932-6.756,3.211-3.154,5.7-2.217,12.064,2.815,18.186,5.271,6.576,9.129,5.2,10.578,4.281a5.214,5.214,0,0,0,1.955-7.059C21.314,16.8,18.2,12.034,18.2,11.807a2.121,2.121,0,0,0-2.887-.671c-.966.686-1.452,1.825-.734,2.732A63.177,63.177,0,0,1,18.41,20.45a1.6,1.6,0,0,1-.489,1.822c-.724.458-2.407-.218-5.043-3.392-2.635-3.4-5.262-8.623-2.351-13.866.485-.912,1.93-.917,2.653-.92,4.093.212,9.856,4.056,12.478,10.642v.227s5.013,10.671-1.75,15.7a7.474,7.474,0,0,1-6.267,1.389c-4.572-.892-10.093-4.965-13.682-10.638a2.121,2.121,0,0,0-2.887-.671C.1,21.431-.382,22.57.337,23.477,3.687,28.7,9.682,34.814,16.9,35.923a8.634,8.634,0,0,0,2.407.218,11.886,11.886,0,0,0,7.234-2.3c4.107-3.2,5.811-7.757,5.112-13.441" transform="translate(12.8 16.558)"/>
    <path id="Path_285" data-name="Path 285" class="cls-1" d="M9.425,5.93c4.335-.244,15.172-.287,23.092,6.052a3,3,0,0,0,4.336-.472,2.625,2.625,0,0,0-.465-4.093C24.388-2.09,7.522.25,6.8.253A3.313,3.313,0,0,0,4.384,2.082C3.9,3.221-7.044,28.968,7.56,49.383A3.355,3.355,0,0,0,10.2,50.738a3.654,3.654,0,0,0,1.688-.462,2.82,2.82,0,0,0,.739-4.1C1.857,30.98,7.475,11.624,9.425,5.93" transform="translate(0 0)"/>
    <path id="Path_286" data-name="Path 286" class="cls-1" d="M196.921,53.072l-38.77.151L35.341,53.7A34.217,34.217,0,0,1,11.3,44.013h0a34.419,34.419,0,0,0,5.085-6.844v-.227C21.736,24.41,17.694,11.687,5.218.818a2.984,2.984,0,0,0-4.335.244,2.613,2.613,0,0,0,.224,4.094c10.557,9.285,13.886,19.508,9.751,29.533-.728,1.368-2.91,5.016-5.566,6.618h0l-.242.228-.242.228a.229.229,0,0,1-.242.228l-.242.228a.229.229,0,0,1-.242.228.229.229,0,0,1-.242.228V44.5a.225.225,0,0,0,.24.227v.227h0v.227A39.935,39.935,0,0,0,34.837,59.162l161.58-.629a3.134,3.134,0,0,0,3.143-2.969c.487-1.367-.953-2.5-2.639-2.492" transform="translate(37.167 12.49)"/>
    <path id="Path_287" data-name="Path 287" class="cls-1" d="M13.411,4.089a2.27,2.27,0,0,0,1.936-2.282A2.3,2.3,0,0,0,12.946,0C7.405.7-1.038,4.372.1,20.746v.227a2.015,2.015,0,0,0,.956,1.816,2.609,2.609,0,0,0,1.2.45,1.643,1.643,0,0,0,1.689-.916A1.705,1.705,0,0,0,4.193,20.5c-.453-7.05.785-15.243,9.218-16.414" transform="translate(9.464 10.205)"/>
    <path id="Path_288" data-name="Path 288" class="cls-1" d="M20.4,5.8c-2.652.693-11.317-.183-14.91-4.719A3.19,3.19,0,0,0,1.161.641a2.8,2.8,0,0,0-.5,4.1c4.553,5.442,12.252,7,17.55,6.983a17.737,17.737,0,0,0,3.855-.47A2.929,2.929,0,0,0,24.249,7.6,3.176,3.176,0,0,0,20.4,5.8" transform="translate(13.855 50.988)"/>
  </g>
</svg>
