<svg xmlns="http://www.w3.org/2000/svg" viewBox="0 0 40.832 33.41">
  <defs>
    <style>
      .cls-1 {
        fill: #52b68b;
      }
    </style>
  </defs>
  <g id="Group_21" data-name="Group 21" transform="translate(5.829 -0.044) rotate(13)">
    <path id="Path_54" data-name="Path 54" class="cls-1" d="M34.882,26.039a.736.736,0,0,1-.491-.1l-13.756-8.45a2.017,2.017,0,0,1-.786-2.456,9.806,9.806,0,0,0,.59-5.306A9.316,9.316,0,0,0,4.913,4.521a9.183,9.183,0,0,0-2.948,7.762,9.3,9.3,0,0,0,8.057,8.352,9.73,9.73,0,0,0,6.19-1.277.995.995,0,1,1,1.081,1.67A11.055,11.055,0,0,1,9.826,22.6,11.377,11.377,0,0,1,.1,12.479,10.868,10.868,0,0,1,3.636,3.047,11.5,11.5,0,0,1,13.265.2,11.4,11.4,0,0,1,22.5,9.335a11.353,11.353,0,0,1-.786,6.485l13.756,8.45a.966.966,0,0,1,.295,1.376A1.463,1.463,0,0,1,34.882,26.039Z" transform="translate(0 0)"/>
  </g>
</svg>
