<?xml version="1.0" encoding="UTF-8"?>
<svg xmlns="http://www.w3.org/2000/svg" id="Layer_1" data-name="Layer 1" viewBox="0 0 401.78 78.84">
  <defs>
    <style>.cls-1{fill:#52b68b;}.cls-2{fill:#1a1a18;}.cls-3{fill:#9c9c9c;}</style>
  </defs>
  <path class="cls-1" d="M35.54,131.21a20.11,20.11,0,0,0-1.45-5.57c-2.3-6.24-7.6-9.76-11.66-10A4.84,4.84,0,0,0,17.56,118c-2.24,4.3-1.52,9.1,2.08,13.87,3.75,5,6.63,4,7.69,3.33a4.29,4.29,0,0,0,1.47-5.44c-.7-1.43-2.88-5.06-3-5.21a1.55,1.55,0,1,0-2.65,1.59s2.2,3.66,2.85,5a1.24,1.24,0,0,1-.32,1.45c-.46.29-1.8-.17-3.61-2.56-2-2.62-3.89-6.58-1.8-10.58.36-.7,1.36-.75,1.93-.71,3,.19,7.16,3.09,9,8.06l.05.11c0,.08,3.6,8.1-1.3,11.87a5.39,5.39,0,0,1-4.45,1c-3.34-.62-7.19-3.81-9.81-8.12a1.54,1.54,0,0,0-2.64,1.6c2.43,4,6.83,8.61,11.89,9.55a9.26,9.26,0,0,0,1.72.16,8.37,8.37,0,0,0,5.18-1.77c2.86-2.22,4.14-5.66,3.69-10" transform="translate(-3.44 -102.43)"></path>
  <path class="cls-1" d="M10.22,107.46c3.07-.19,11-.14,16.71,4.7a2.25,2.25,0,0,0,2.89-3.44c-8.81-7.39-21-5.65-21.57-5.57a2.25,2.25,0,0,0-1.75,1.37c-.33.83-8.14,20.46,2.56,36.06A2.25,2.25,0,0,0,12.77,138c-7.9-11.51-4-26.24-2.55-30.58" transform="translate(-3.44 -102.43)"></path>
  <path class="cls-1" d="M172,153.42H55.72A23.8,23.8,0,0,1,38.47,146l-.06-.07v0A22.26,22.26,0,0,0,42,140.66a1.11,1.11,0,0,0,.07-.16c3.77-9.44.86-19.25-8.18-27.6a2.24,2.24,0,1,0-3,3.3C38.54,123.28,41,131.07,38,138.75a15.5,15.5,0,0,1-4,5l-.05.05-.06,0-.11.1-.17.17-.13.16-.13.2-.09.18-.09.21a1.33,1.33,0,0,0,0,.19,1.89,1.89,0,0,0,0,.23,1.23,1.23,0,0,0,0,.19,1.92,1.92,0,0,0,0,.24,1.23,1.23,0,0,0,0,.19,2,2,0,0,0,0,.24l.06.19c0,.07.05.15.08.22l.11.19s0,.09.08.14l0,.05s0,.11,0,.13a28.34,28.34,0,0,0,22.25,10.82H172a2.25,2.25,0,0,0,0-4.49" transform="translate(-3.44 -102.43)"></path>
  <path class="cls-1" d="M19.84,113.79a1.55,1.55,0,0,0-.44-3.06c-3.76.55-9.94,3.3-9.1,15.66,0,.08,0,.16,0,.21A1.53,1.53,0,0,0,11,128a1.56,1.56,0,0,0,.86.27,1.51,1.51,0,0,0,1.28-.69,1.92,1.92,0,0,0,.25-1.37c-.35-5.18.49-11.53,6.46-12.39" transform="translate(-3.44 -102.43)"></path>
  <path class="cls-1" d="M28.27,146.19c-2,.5-8.06-.12-10.83-3.57a2.24,2.24,0,1,0-3.5,2.8c3.27,4.08,8.9,5.4,12.73,5.4a11.07,11.07,0,0,0,2.68-.28,2.24,2.24,0,1,0-1.08-4.35" transform="translate(-3.44 -102.43)"></path>
  <path class="cls-2" d="M51.51,117.5h7.06v22a2.93,2.93,0,0,0,2.87,3,2.79,2.79,0,0,0,2.74-3v-22h7a2.93,2.93,0,0,0,3-2.8,2.83,2.83,0,0,0-3-2.81H51.51a2.83,2.83,0,0,0-3,2.81,2.88,2.88,0,0,0,3,2.8" transform="translate(-3.44 -102.43)"></path>
  <path class="cls-2" d="M70.64,128.14a43.79,43.79,0,0,0,0,5.38c.43,5.39,4.44,9.14,10.38,9.14a15.13,15.13,0,0,0,7.11-1.51,2.67,2.67,0,0,0,1.46-2.41,2.59,2.59,0,0,0-3.79-2.29,13.85,13.85,0,0,1-4.74,1c-2.89,0-5.09-1.47-5.09-4.18v-.57H87.7c2.11,0,2.86-1.07,2.86-2.75V129c0-6.08-4-10-9.81-10-5.64,0-9.59,3.58-10.11,9.18m10.17-4.25c2.8,0,4.43,1.73,4.3,4.35,0,.35-.17.49-.47.49h-8.4c0-2.81,1.51-4.84,4.57-4.84" transform="translate(-3.44 -102.43)"></path>
  <path class="cls-2" d="M96.17,142.53a2.81,2.81,0,0,0,2.8-3V125.64a9.86,9.86,0,0,1,4.23-1c2.24,0,4.19,1.25,4.19,4v10.89a2.9,2.9,0,0,0,2.81,3,2.81,2.81,0,0,0,2.8-3V128.4c0-6-3.22-9.44-9.68-9.44a16.14,16.14,0,0,0-9,2.37,2.15,2.15,0,0,0-.93,2.11v16.11a2.9,2.9,0,0,0,2.81,3" transform="translate(-3.44 -102.43)"></path>
  <path class="cls-2" d="M126.13,142.66c6.29,0,9.57-4.1,9.57-6.51a2.81,2.81,0,0,0-2.8-3,2.43,2.43,0,0,0-2.29,1.33,4.64,4.64,0,0,1-4.3,2.63c-2.85,0-4.4-1.89-4.66-4.39a35.72,35.72,0,0,1,0-4.14,4.3,4.3,0,0,1,4.66-4.13,4.51,4.51,0,0,1,4.26,2.54,2.39,2.39,0,0,0,2.28,1.29,2.79,2.79,0,0,0,2.8-2.93c0-2.41-3.18-6.42-9.52-6.42-5.6,0-9.86,3.62-10.21,8.79a47.74,47.74,0,0,0,0,5.86,9.91,9.91,0,0,0,10.21,9" transform="translate(-3.44 -102.43)"></path>
  <path class="cls-2" d="M147.89,142.66a15.1,15.1,0,0,0,7.11-1.51,2.68,2.68,0,0,0,1.47-2.42,2.59,2.59,0,0,0-3.79-2.28,12.7,12.7,0,0,1-4.52,1c-2.88,0-4.86-1.46-4.86-4.18v-.57h11.27c2.11,0,2.76-1.06,2.76-2.74V129c0-6.08-3.9-10-9.76-10-5.64,0-9.59,3.58-10.11,9.18a46.16,46.16,0,0,0,0,5.38c.44,5.39,4.47,9.14,10.41,9.14m-.21-18.77c2.8,0,4.44,1.73,4.31,4.36a.42.42,0,0,1-.48.48h-8.4c0-2.81,1.51-4.84,4.57-4.84" transform="translate(-3.44 -102.43)"></path>
  <path class="cls-2" d="M162.94,142.53a2.82,2.82,0,0,0,2.81-3V114.44a2.81,2.81,0,1,0-5.61,0v25.11a2.9,2.9,0,0,0,2.8,3" transform="translate(-3.44 -102.43)"></path>
  <path class="cls-2" d="M175.87,112.85l.46,2,.48-2a.83.83,0,0,1,1.64.1l.42,2.66c0,.32-.06.64-.38.7a.53.53,0,0,1-.67-.47l-.29-2.24-.52,2.1a.7.7,0,0,1-.68.61c-.33,0-.56-.22-.68-.61l-.52-2.11-.29,2.25a.52.52,0,0,1-.66.47.55.55,0,0,1-.38-.7l.42-2.64a.84.84,0,0,1,.84-.77.82.82,0,0,1,.81.65m-3.27,2.92a.53.53,0,0,1-.54.54.55.55,0,0,1-.55-.54v-2.49h-.8a.51.51,0,0,1-.51-.5.5.5,0,0,1,.51-.52h2.67a.5.5,0,0,1,.51.52.51.51,0,0,1-.51.5h-.78Z" transform="translate(-3.44 -102.43)"></path>
  <polygon class="cls-2" points="72.44 74.82 72.44 63.39 79.39 63.39 79.39 64.86 74.02 64.86 74.02 68.53 78.89 68.53 78.89 70.02 74.02 70.02 74.02 74.82 72.44 74.82"></polygon>
  <path class="cls-2" d="M89.08,172.57a2,2,0,0,0-2.13-2,2.09,2.09,0,0,0-2.11,2ZM90.61,175a3.5,3.5,0,0,1-3.48,2.45,4.13,4.13,0,0,1-.19-8.23c2.38,0,3.72,1.64,3.72,4.06,0,.19,0,.38,0,.48H84.8a2.29,2.29,0,0,0,2.33,2.35,2.11,2.11,0,0,0,2.18-1.56Z" transform="translate(-3.44 -102.43)"></path>
  <path class="cls-2" d="M97.57,172.57a2,2,0,0,0-2.13-2,2.09,2.09,0,0,0-2.11,2ZM99.1,175a3.5,3.5,0,0,1-3.48,2.45,4.13,4.13,0,0,1-.19-8.23c2.38,0,3.72,1.64,3.72,4.06,0,.19,0,.38,0,.48H93.29a2.29,2.29,0,0,0,2.33,2.35,2.11,2.11,0,0,0,2.18-1.56Z" transform="translate(-3.44 -102.43)"></path>
  <rect class="cls-2" x="97.25" y="63.15" width="1.51" height="11.66"></rect>
  <path class="cls-2" d="M105.19,174.75a1.65,1.65,0,0,0,1.8,1.45c.86,0,1.33-.48,1.33-1s-.36-.85-1-1l-1.32-.29a2.21,2.21,0,0,1-1.94-2.17,2.64,2.64,0,0,1,2.76-2.45,2.76,2.76,0,0,1,3,2.07l-1.34.5a1.51,1.51,0,0,0-1.61-1.29,1.17,1.17,0,0,0-1.29,1c0,.46.29.8.88.93l1.26.27a2.36,2.36,0,0,1,2.14,2.31,2.57,2.57,0,0,1-2.83,2.4,2.93,2.93,0,0,1-3.16-2.26Z" transform="translate(-3.44 -102.43)"></path>
  <path class="cls-2" d="M116,174.75a1.64,1.64,0,0,0,1.8,1.45c.85,0,1.32-.48,1.32-1s-.35-.85-1-1l-1.32-.29a2.2,2.2,0,0,1-1.93-2.17,2.64,2.64,0,0,1,2.75-2.45,2.74,2.74,0,0,1,3,2.07l-1.34.5a1.5,1.5,0,0,0-1.61-1.29,1.17,1.17,0,0,0-1.29,1c0,.46.29.8.89.93l1.26.27a2.36,2.36,0,0,1,2.14,2.31,2.58,2.58,0,0,1-2.84,2.4,2.92,2.92,0,0,1-3.15-2.26Z" transform="translate(-3.44 -102.43)"></path>
  <path class="cls-2" d="M128.07,173.36a2.44,2.44,0,1,0-2.42,2.78,2.47,2.47,0,0,0,2.42-2.78m1.54,0a4,4,0,1,1-4-4.1,3.91,3.91,0,0,1,4,4.1" transform="translate(-3.44 -102.43)"></path>
  <path class="cls-2" d="M139.39,171a5,5,0,0,0-.66-.05c-1.27,0-2.13.68-2.13,2.38v3.89h-1.51V169.5h1.48v1.35a2.43,2.43,0,0,1,2.32-1.48,2.48,2.48,0,0,1,.5,0Z" transform="translate(-3.44 -102.43)"></path>
  <path class="cls-2" d="M140.76,169.5h1.5v7.75h-1.5Zm.74-4a1.09,1.09,0,1,1-1.08,1.1,1.09,1.09,0,0,1,1.08-1.1" transform="translate(-3.44 -102.43)"></path>
  <path class="cls-2" d="M150,173.12a2.24,2.24,0,1,0-2.21,2.48,2.23,2.23,0,0,0,2.21-2.48m-4.54,4.21a2.05,2.05,0,0,0,2.11,1.9c1.62,0,2.37-.84,2.37-2.51V175.6a2.59,2.59,0,0,1-2.37,1.28,3.77,3.77,0,0,1,0-7.53,2.44,2.44,0,0,1,2.38,1.23V169.5h1.5v7.17a3.54,3.54,0,0,1-3.88,3.88,3.39,3.39,0,0,1-3.58-2.88Z" transform="translate(-3.44 -102.43)"></path>
  <path class="cls-2" d="M154.94,177.25h-1.52V165.58h1.52v4.82a2.73,2.73,0,0,1,2.35-1.13c1.85,0,2.77,1.34,2.77,3.06v4.92h-1.51v-4.66c0-1.08-.46-2-1.81-2-1.16,0-1.77.91-1.8,2.05Z" transform="translate(-3.44 -102.43)"></path>
  <path class="cls-2" d="M164.26,169.5h1.68v1.37h-1.68v4c0,.71.29,1.07,1.08,1.07a2.53,2.53,0,0,0,.6-.07v1.29a3.24,3.24,0,0,1-1,.15,2,2,0,0,1-2.16-2.21v-4.25h-1.48V169.5h.42a1.09,1.09,0,0,0,1.19-1.19v-1.26h1.38Z" transform="translate(-3.44 -102.43)"></path>
  <path class="cls-3" d="M232.74,181.27a.72.72,0,0,1-.72-.72v-77.4a.72.72,0,0,1,1.44,0v77.4A.72.72,0,0,1,232.74,181.27Z" transform="translate(-3.44 -102.43)"></path>
  <path class="cls-2" d="M291.46,120v1.63h3.36V125h-3.36v11.42h-4V125h-2.48v-3.45h2.48V119.9c0-3.35,2.11-5.53,5.4-5.53a5.89,5.89,0,0,1,2,.3v3.39a4.55,4.55,0,0,0-1.27-.15A1.89,1.89,0,0,0,291.46,120Z" transform="translate(-3.44 -102.43)"></path>
  <path class="cls-2" d="M309.65,132.2a6.69,6.69,0,0,1-6.76,4.71,7.9,7.9,0,0,1-.37-15.77c4.6,0,7.35,2.93,7.35,7.7,0,.58-.07,1.18-.07,1.24H299.17a3.62,3.62,0,0,0,3.75,3.38,3.27,3.27,0,0,0,3.38-2.26Zm-3.74-4.87a3,3,0,0,0-3.33-2.93,3.21,3.21,0,0,0-3.32,2.93Z" transform="translate(-3.44 -102.43)"></path>
  <path class="cls-2" d="M325.61,132.2a6.7,6.7,0,0,1-6.77,4.71,7.9,7.9,0,0,1-.36-15.77c4.59,0,7.34,2.93,7.34,7.7,0,.58-.06,1.18-.06,1.24H315.13a3.62,3.62,0,0,0,3.74,3.38,3.29,3.29,0,0,0,3.39-2.26Zm-3.75-4.87a3,3,0,0,0-3.32-2.93,3.21,3.21,0,0,0-3.32,2.93Z" transform="translate(-3.44 -102.43)"></path>
  <path class="cls-2" d="M328.24,136.46V114.58h4v21.88Z" transform="translate(-3.44 -102.43)"></path>
  <path class="cls-2" d="M342.43,136.29a3.33,3.33,0,0,0,3.48,2.81c2.53,0,3.95-1.27,3.95-4.14v-1.09a4.7,4.7,0,0,1-4.14,1.9,6.88,6.88,0,0,1-6.91-7.22,7,7,0,0,1,6.91-7.25c2.36,0,3.72,1,4.23,2v-1.75h3.87v13.27c0,4.07-2.2,7.79-7.79,7.79-4.08,0-6.8-2.54-7.22-5.38Zm7.49-7.74a3.54,3.54,0,1,0-3.5,3.78A3.46,3.46,0,0,0,349.92,128.55Z" transform="translate(-3.44 -102.43)"></path>
  <path class="cls-2" d="M371.62,129a7.8,7.8,0,1,1-7.79-7.88A7.63,7.63,0,0,1,371.62,129Zm-4,0c0-2.81-1.81-4.23-3.77-4.23s-3.78,1.42-3.78,4.23,1.81,4.23,3.78,4.23S367.6,131.81,367.6,129Z" transform="translate(-3.44 -102.43)"></path>
  <path class="cls-2" d="M388.51,129a7.8,7.8,0,1,1-7.79-7.88A7.63,7.63,0,0,1,388.51,129Zm-4,0c0-2.81-1.82-4.23-3.78-4.23s-3.78,1.42-3.78,4.23,1.82,4.23,3.78,4.23S384.5,131.81,384.5,129Z" transform="translate(-3.44 -102.43)"></path>
  <path class="cls-2" d="M405.1,133.75c0,1,.06,2.08.12,2.69h-3.83a10.48,10.48,0,0,1-.15-1.73,4.67,4.67,0,0,1-4.17,2.09c-4.23,0-7.25-3.32-7.25-7.83,0-4.35,2.93-7.76,7.13-7.76,2.56,0,3.77,1.06,4.2,1.84v-8.49h4Zm-7.55-.55c2.05,0,3.66-1.57,3.66-4.26s-1.61-4.14-3.66-4.14-3.69,1.52-3.69,4.17S395.44,133.2,397.55,133.2Z" transform="translate(-3.44 -102.43)"></path>
  <path class="cls-2" d="M291.39,148.65v1.63h3.35v3.44h-3.35v11.42h-4.05V153.72h-2.48v-3.44h2.48v-1.69c0-3.36,2.12-5.53,5.41-5.53a5.82,5.82,0,0,1,2,.3v3.39a4,4,0,0,0-1.27-.16A1.9,1.9,0,0,0,291.39,148.65Z" transform="translate(-3.44 -102.43)"></path>
  <path class="cls-2" d="M298.76,142.91a2.48,2.48,0,1,1-2.47,2.51A2.48,2.48,0,0,1,298.76,142.91Zm-2,22.23V150.28h4v14.86Z" transform="translate(-3.44 -102.43)"></path>
  <path class="cls-2" d="M304.32,165.14V143.27h4v8.64a5.29,5.29,0,0,1,4.5-2c4.35,0,6.86,3.35,6.86,7.76s-2.78,7.86-7,7.86a5,5,0,0,1-4.41-2.18v1.81Zm7.62-11.66c-2,0-3.72,1.48-3.72,4.2s1.69,4.23,3.72,4.23,3.68-1.51,3.68-4.23S314,153.48,311.94,153.48Z" transform="translate(-3.44 -102.43)"></path>
  <path class="cls-2" d="M335.39,160.88a6.7,6.7,0,0,1-6.77,4.72,7.9,7.9,0,0,1-.36-15.77c4.59,0,7.34,2.93,7.34,7.7,0,.58-.06,1.18-.06,1.24H324.9a3.63,3.63,0,0,0,3.75,3.38,3.27,3.27,0,0,0,3.38-2.26ZM331.64,156a3,3,0,0,0-3.32-2.93A3.23,3.23,0,0,0,325,156Z" transform="translate(-3.44 -102.43)"></path>
  <path class="cls-2" d="M347.08,154.27a6,6,0,0,0-1.21-.12c-2.05,0-3.83,1-3.83,4.2v6.79h-4V150.28h3.9v2.21a4.41,4.41,0,0,1,4.23-2.33,9.09,9.09,0,0,1,.93.06Z" transform="translate(-3.44 -102.43)"></path>
  <path class="cls-2" d="M351.44,160.25a2.47,2.47,0,0,0,2.72,2.27c1.32,0,2-.7,2-1.48s-.45-1.21-1.6-1.45l-2-.46c-2.87-.63-4.16-2.35-4.16-4.44,0-2.66,2.35-4.86,5.55-4.86,4.23,0,5.65,2.69,5.83,4.29l-3.35.75a2.26,2.26,0,0,0-2.45-2,1.71,1.71,0,0,0-1.9,1.48c0,.72.54,1.18,1.36,1.33l2.12.45c2.93.61,4.41,2.39,4.41,4.56,0,2.42-1.88,4.9-5.77,4.9-4.48,0-6-2.9-6.2-4.59Z" transform="translate(-3.44 -102.43)"></path>
  <path class="cls-1" d="M369.37,148.59a1.24,1.24,0,0,0,1.36,1.14c.66,0,1-.35,1-.74s-.23-.61-.8-.73l-1-.22c-1.44-.32-2.09-1.18-2.09-2.22a2.6,2.6,0,0,1,2.78-2.44c2.12,0,2.83,1.35,2.92,2.15l-1.68.38a1.13,1.13,0,0,0-1.22-1,.86.86,0,0,0-1,.74c0,.36.28.59.68.66l1.06.23c1.47.3,2.21,1.19,2.21,2.28s-.94,2.45-2.89,2.45c-2.23,0-3-1.45-3.09-2.3Z" transform="translate(-3.44 -102.43)"></path>
  <path class="cls-1" d="M376.24,139.92a1.24,1.24,0,1,1-1.24,1.26A1.25,1.25,0,0,1,376.24,139.92Zm-1,11.12v-7.43h2V151Z" transform="translate(-3.44 -102.43)"></path>
  <path class="cls-1" d="M381.41,151h-2v-7.43h2v.92a2.46,2.46,0,0,1,2.14-1.12c1.85,0,2.69,1.32,2.69,3V151h-2v-4.33a1.3,1.3,0,0,0-1.37-1.48,1.4,1.4,0,0,0-1.39,1.54Z" transform="translate(-3.44 -102.43)"></path>
  <path class="cls-1" d="M389.68,147.33a1.91,1.91,0,0,0,1.9,2.1,1.7,1.7,0,0,0,1.71-1.26l1.76.59a3.44,3.44,0,0,1-3.47,2.51,3.95,3.95,0,0,1-.06-7.89,3.41,3.41,0,0,1,3.49,2.51l-1.8.61a1.63,1.63,0,0,0-1.65-1.26A1.89,1.89,0,0,0,389.68,147.33Z" transform="translate(-3.44 -102.43)"></path>
  <path class="cls-1" d="M403.12,148.91a3.34,3.34,0,0,1-3.38,2.36,4,4,0,0,1-.18-7.89c2.29,0,3.67,1.47,3.67,3.86,0,.28,0,.58,0,.61h-5.32a1.82,1.82,0,0,0,1.87,1.7,1.63,1.63,0,0,0,1.69-1.14Zm-1.87-2.43a1.5,1.5,0,0,0-1.66-1.47,1.6,1.6,0,0,0-1.66,1.47Z" transform="translate(-3.44 -102.43)"></path>
  <path class="cls-1" d="M370.5,165v-5.9h-2.12v-1.27a2.24,2.24,0,0,0,2.36-1.66h1.62V165Z" transform="translate(-3.44 -102.43)"></path>
  <path class="cls-1" d="M376.74,163.24a3.49,3.49,0,0,0,1.56.38,2.55,2.55,0,0,0,2.8-2.5,2.39,2.39,0,0,1-2,.95,2.91,2.91,0,0,1-3-3,3.13,3.13,0,0,1,3.38-3.1c1.92,0,3.52,1.36,3.52,4.17,0,3.19-1.59,5.06-4.61,5.06a4.23,4.23,0,0,1-2-.49Zm2.6-5.64a1.45,1.45,0,0,0-1.51,1.46,1.43,1.43,0,0,0,1.51,1.45,1.46,1.46,0,1,0,0-2.91Z" transform="translate(-3.44 -102.43)"></path>
  <path class="cls-1" d="M386.84,163.24a3.51,3.51,0,0,0,1.57.38,2.56,2.56,0,0,0,2.8-2.5,2.4,2.4,0,0,1-2,.95,2.91,2.91,0,0,1-3.05-3,3.14,3.14,0,0,1,3.39-3.1c1.91,0,3.52,1.36,3.52,4.17,0,3.19-1.59,5.06-4.61,5.06a4.24,4.24,0,0,1-2-.49Zm2.6-5.64a1.45,1.45,0,0,0-1.51,1.46,1.52,1.52,0,0,0,3,0A1.46,1.46,0,0,0,389.44,157.6Z" transform="translate(-3.44 -102.43)"></path>
  <path class="cls-1" d="M396.29,159.57a4,4,0,0,1-.07-.61,3,3,0,0,1,3.23-3,2.92,2.92,0,0,1,3.18,2.84,3.17,3.17,0,0,1-1.71,2.73l-1.7,1a1.77,1.77,0,0,0-.76.8h4.22V165h-6.52a4,4,0,0,1,2.08-3.77l1.45-.87a1.72,1.72,0,0,0,1.05-1.52,1.21,1.21,0,0,0-1.33-1.21,1.33,1.33,0,0,0-1.4,1.47,2,2,0,0,0,.06.49Z" transform="translate(-3.44 -102.43)"></path>
</svg>
