<svg xmlns="http://www.w3.org/2000/svg" width="28" height="28" viewBox="0 0 28 28">
  <g id="Group_1610" data-name="Group 1610" transform="translate(-4947 1679)">
    <rect id="Rectangle_961" data-name="Rectangle 961" width="28" height="28" transform="translate(4947 -1679)" fill="none"/>
    <g id="instagram_1_" data-name="instagram (1)" transform="translate(4948 -1678)">
      <g id="Group_1565" data-name="Group 1565" transform="translate(0)">
        <g id="Group_1564" data-name="Group 1564">
          <path id="Path_497" data-name="Path 497" d="M18.885,0H6.992A7,7,0,0,0,0,6.992V18.885a7,7,0,0,0,6.992,6.992H18.885a7,7,0,0,0,6.992-6.992V6.992A7,7,0,0,0,18.885,0Zm4.9,18.885a4.907,4.907,0,0,1-4.9,4.9H6.992a4.907,4.907,0,0,1-4.9-4.9V6.992a4.907,4.907,0,0,1,4.9-4.9H18.885a4.907,4.907,0,0,1,4.9,4.9Z" fill="#52b68b"/>
        </g>
      </g>
      <g id="Group_1567" data-name="Group 1567" transform="translate(7.186 7.084)">
        <g id="Group_1566" data-name="Group 1566">
          <path id="Path_498" data-name="Path 498" d="M153.728,145.123a5.8,5.8,0,1,0-5.752,6.655,5.882,5.882,0,0,0,.863-.064,5.8,5.8,0,0,0,4.889-6.591Zm-5.2,4.523a3.712,3.712,0,1,1,3.127-4.216A3.687,3.687,0,0,1,148.533,149.646Z" transform="translate(-142.185 -140.171)" fill="#52b68b"/>
        </g>
      </g>
      <g id="Group_1569" data-name="Group 1569" transform="translate(18.434 5.352)">
        <g id="Group_1568" data-name="Group 1568">
          <path id="Path_499" data-name="Path 499" d="M366.525,106.2a1.045,1.045,0,1,0,.306.739A1.053,1.053,0,0,0,366.525,106.2Z" transform="translate(-364.741 -105.893)" fill="#52b68b"/>
        </g>
      </g>
    </g>
  </g>
</svg>
